<?xml version="1.0" encoding="utf-8"?>
<!-- Generator: Adobe Illustrator 15.0.0, SVG Export Plug-In . SVG Version: 6.00 Build 0)  -->
<!DOCTYPE svg PUBLIC "-//W3C//DTD SVG 1.1//EN" "http://www.w3.org/Graphics/SVG/1.1/DTD/svg11.dtd">
<svg version="1.1" id="lay_1" xmlns="http://www.w3.org/2000/svg" xmlns:xlink="http://www.w3.org/1999/xlink" x="0px" y="0px"
	 width="940px" height="860px" viewBox="0 0 940 842" enable-background="new 0 0 940 842" xml:space="preserve">
<g>
	<defs>
		<rect id="SVGID_1_" width="940" height="842"/>
	</defs>
	<clipPath id="SVGID_2_">
		<use xlink:href="#SVGID_1_"  overflow="visible"/>
	</clipPath>
	<g clip-path="url(#SVGID_2_)">
		<defs>
			<rect id="SVGID_3_" x="55" y="28.001" width="800" height="790.999"/>
		</defs>
		<clipPath id="SVGID_4_">
			<use xlink:href="#SVGID_3_"  overflow="visible"/>
		</clipPath>
	</g>
	<g clip-path="url(#SVGID_2_)">
		<defs>
			<rect id="SVGID_5_" width="940" height="842"/>
		</defs>
		<clipPath id="SVGID_6_">
			<use xlink:href="#SVGID_5_"  overflow="visible"/>
		</clipPath>
		<g opacity="0.25" clip-path="url(#SVGID_6_)">
			<g>
				<defs>
					<rect id="SVGID_7_" x="266.49" y="32.889" width="535.18" height="729.71"/>
				</defs>
				<clipPath id="SVGID_8_">
					<use xlink:href="#SVGID_7_"  overflow="visible"/>
				</clipPath>
				<path clip-path="url(#SVGID_8_)" fill="#E60412" d="M446,35c64.399-11.254,187.124,22.609,234,99c27,44,3.812,61.317-12,88
					c-16,27-51,42-56,58l-5,16c0,0,4,29,18,41s129,60,154,91s33,37,5,69s-139,40-191,63s-67,51-36,85s44,38,83,35s50,13,27,49
					s-89.895,39.6-138,27c-42-11-130-56-154-85s-66.41-68.779-36-151c27-73-3.657-109-10.829-127C321,375,299,377,280,355
					s-17-36,0-56s45-36,27-71S343,53,446,35"/>
			</g>
		</g>
	</g>
	<g clip-path="url(#SVGID_2_)">
		<defs>
			<rect id="SVGID_9_" width="940" height="842"/>
		</defs>
		<clipPath id="SVGID_10_">
			<use xlink:href="#SVGID_9_"  overflow="visible"/>
		</clipPath>
		<g opacity="0.25" clip-path="url(#SVGID_10_)">
			<g>
				<defs>
					<rect id="SVGID_11_" x="64.995" y="88.765" width="702.457" height="542.571"/>
				</defs>
				<clipPath id="SVGID_12_">
					<use xlink:href="#SVGID_11_"  overflow="visible"/>
				</clipPath>
				<path clip-path="url(#SVGID_12_)" fill="#76BC29" d="M226,281c-31.97-23.978-97-60-134,35s-35,198,0,234s84,66,134,73
					s58.167,1.465,81-15s54,5.936,74,17.968S428,629,438,607l10-22c0,0,8-65,116-61s141-23,184-134s5-173-21-209s-86-21-59,26
					s-12,79-23,86s-42,36-84-18s-43-100-91-153s-73.769-40.627-99,23c-14.223,35.867-20,86-34,130S270,314,226,281"/>
			</g>
		</g>
	</g>
	<g clip-path="url(#SVGID_2_)">
		<defs>
			<rect id="SVGID_13_" width="940" height="842"/>
		</defs>
		<clipPath id="SVGID_14_">
			<use xlink:href="#SVGID_13_"  overflow="visible"/>
		</clipPath>
		<g opacity="0.25" clip-path="url(#SVGID_14_)">
			<g>
				<defs>
					<rect id="SVGID_15_" x="126.901" y="71.57" width="697.112" height="575.818"/>
				</defs>
				<clipPath id="SVGID_16_">
					<use xlink:href="#SVGID_15_"  overflow="visible"/>
				</clipPath>
				<path clip-path="url(#SVGID_16_)" fill="#FEDF00" d="M410,108c-12.684-26.213-33-39-76-36s-139,40-169,82s-54,106-25,179
					s62,81,81,88s24,28,29,55s14,49,59,41s75-21,124,35s74,100,160,95s228.977-60.572,231-173c0.846-47-39.354-68.677-58-23
					c-9.084,22.254-29,38-50,38s-69-5-72-34s40.144-128.382,63-185c15.5-38.396,22.476-104.984-71-84c-49,11-94,42-125,49l-31,7
					c0,0-39,3-49-36S425,139,410,108"/>
			</g>
		</g>
	</g>
	<g clip-path="url(#SVGID_2_)">
		<defs>
			<rect id="SVGID_17_" width="940" height="842"/>
		</defs>
		<clipPath id="SVGID_18_">
			<use xlink:href="#SVGID_17_"  overflow="visible"/>
		</clipPath>
		<g opacity="0.25" clip-path="url(#SVGID_18_)">
			<g>
				<defs>
					<rect id="SVGID_19_" x="129.502" y="152.297" width="576.91" height="661.752"/>
				</defs>
				<clipPath id="SVGID_20_">
					<use xlink:href="#SVGID_19_"  overflow="visible"/>
				</clipPath>
				<path clip-path="url(#SVGID_20_)" fill="#4785C6" d="M367,683c-22,64,3,145,167.08,129
					c181.273-17.677,171.699-152.268,172.31-193.634S695,555,680,541s-19-48-9-68s28-45-29-63s-97.153-16.586-109.214-111
					S451,161,329,153s-189,54-189,98s29.247,40.338,62.124,14.669C235,240,264,262,281,277l17,15c0,0,38,44-75,129
					S72.203,570.637,266.49,572C409,573,390.908,613.448,367,683"/>
			</g>
		</g>
	</g>
	<g clip-path="url(#SVGID_2_)">
		<defs>
			<rect id="SVGID_21_" width="940" height="842"/>
		</defs>
		<clipPath id="SVGID_22_">
			<use xlink:href="#SVGID_21_"  overflow="visible"/>
		</clipPath>
		<g opacity="0.25" clip-path="url(#SVGID_22_)">
			<g>
				<defs>
					<rect id="SVGID_23_" x="99.576" y="261.485" width="746.254" height="476.284"/>
				</defs>
				<clipPath id="SVGID_24_">
					<use xlink:href="#SVGID_23_"  overflow="visible"/>
				</clipPath>
				<path clip-path="url(#SVGID_24_)" fill="#49469A" d="M603,656c28.767,42.632,90.849,113.157,198.67-29
					C876,529,839.07,453.95,816,411c-7.12-13.255-32.981-38.19-62-62c-20.567-16.875-40-20-62-22s-44.965,3.69-60.157-25.568
					C616.65,272.173,595,235,541,289s-98,19-140,3s-74.502-52.75-167.751-5.875S111,416,102,456s8.803,86,24.901,106
					c16.099,20,52.978,33.434,45.423-34.96C170,506,191.305,488.239,219,474s64-33,81,38s-9,138,13,191s80,47,136-29
					S537.373,558.739,603,656"/>
			</g>
		</g>
	</g>
	<g clip-path="url(#SVGID_2_)">
		<defs>
			<rect id="SVGID_25_" width="940" height="842"/>
		</defs>
		<clipPath id="SVGID_26_">
			<use xlink:href="#SVGID_25_"  overflow="visible"/>
		</clipPath>
		<g opacity="0.25" clip-path="url(#SVGID_26_)">
			<g>
				<defs>
					<rect id="SVGID_27_" x="208.646" y="143.302" width="632.182" height="630.664"/>
				</defs>
				<clipPath id="SVGID_28_">
					<use xlink:href="#SVGID_27_"  overflow="visible"/>
				</clipPath>
				<path clip-path="url(#SVGID_28_)" fill="#CC4091" d="M724,459c48.879,9.637,150,15,106-148S711,140,628,144s-94,22-108,42
					s-23.653,33.152-54.828,30.95c-31.175-2.202-64.665-13.349-67.172,44.535C395.938,309.087,418,342,305,389
					s-110.902,148.445-73,269c17.498,55.654,65.72,96.999,105,112s71-15,38-49s-41.103-51.313-22-89.664
					C372.103,592.984,393,570,508,660s144.781,70.018,154.025,20.881s-16.48-111.396-25.168-161.497
					C625,451,690.208,452.338,724,459"/>
			</g>
		</g>
	</g>
	<g clip-path="url(#SVGID_2_)">
		<defs>
			<rect id="SVGID_29_" width="940" height="842"/>
		</defs>
		<clipPath id="SVGID_30_">
			<use xlink:href="#SVGID_29_"  overflow="visible"/>
		</clipPath>
		<g opacity="0.25" clip-path="url(#SVGID_30_)">
			<g>
				<defs>
					<rect id="SVGID_31_" x="128.731" y="63.99" width="524.287" height="725.773"/>
				</defs>
				<clipPath id="SVGID_32_">
					<use xlink:href="#SVGID_31_"  overflow="visible"/>
				</clipPath>
				<path clip-path="url(#SVGID_32_)" fill="#5BB97A" d="M209,512c-51.674,15.16-110,52.775-63,135.388S303,830,405,773
					s104-90,103-113s46-42,59-46s45.035-18.283,26-54s-59.211-81,5.895-153s78.895-129,0-238S464.077,64.047,438,64
					c-34-0.062-102.404,39.122-26,64c30.657,9.982,50,44,50,63s26.196,70.707-71.149,60c-68.732-7.56-101.888-16.936-145.851-27
					c-83-19-114,36-53,109S328.623,476.904,209,512"/>
			</g>
		</g>
	</g>
	<g clip-path="url(#SVGID_2_)">
		<defs>
			<rect id="SVGID_33_" width="940" height="842"/>
		</defs>
		<clipPath id="SVGID_34_">
			<use xlink:href="#SVGID_33_"  overflow="visible"/>
		</clipPath>
		<path clip-path="url(#SVGID_34_)" fill="none" stroke="#E60412" stroke-miterlimit="10" d="M446,35
			c64.399-11.254,187.124,22.609,234,99c27,44,3.812,61.317-12,88c-16,27-51,42-56,58l-5,16c0,0,4,29,18,41s129,60,154,91
			s33,37,5,69s-139,40-191,63s-67,51-36,85s44,38,83,35s50,13,27,49s-89.895,39.6-138,27c-42-11-130-56-154-85s-66.41-68.779-36-151
			c27-73-3.657-109-10.829-127C321,375,299,377,280,355s-17-36,0-56s45-36,27-71S343,53,446,35z"/>
		<path clip-path="url(#SVGID_34_)" fill="none" stroke="#FEDF00" stroke-miterlimit="10" d="M410,108c-12.684-26.213-33-39-76-36
			s-139,40-169,82s-54,106-25,179s62,81,81,88s24,28,29,55s14,49,59,41s75-21,124,35s74,100,160,95s228.977-60.572,231-173
			c0.846-47-39.354-68.677-58-23c-9.084,22.254-29,38-50,38s-69-5-72-34s40.144-128.382,63-185c15.5-38.396,22.476-104.984-71-84
			c-49,11-94,42-125,49l-31,7c0,0-39,3-49-36S425,139,410,108z"/>
		<path clip-path="url(#SVGID_34_)" fill="none" stroke="#76BC29" stroke-miterlimit="10" d="M226,281c-31.97-23.978-97-60-134,35
			s-35,198,0,234s84,66,134,73s58.167,1.465,81-15s54,5.936,74,17.968S428,629,438,607l10-22c0,0,8-65,116-61s141-23,184-134
			s5-173-21-209s-86-21-59,26s-12,79-23,86s-42,36-84-18s-43-100-91-153s-73.769-40.627-99,23c-14.223,35.867-20,86-34,130
			S270,314,226,281z"/>
		<path clip-path="url(#SVGID_34_)" fill="none" stroke="#5BB97A" stroke-miterlimit="10" d="M209,512
			c-51.674,15.16-110,52.775-63,135.388S303,830,405,773s104-90,103-113s46-42,59-46s45.035-18.283,26-54s-59.211-81,5.895-153
			s78.895-129,0-238S464.077,64.047,438,64c-34-0.062-102.404,39.122-26,64c30.657,9.982,50,44,50,63s26.196,70.707-71.149,60
			c-68.732-7.56-101.888-16.936-145.851-27c-83-19-114,36-53,109S328.623,476.904,209,512z"/>
		<path clip-path="url(#SVGID_34_)" fill="none" stroke="#4785C6" stroke-miterlimit="10" d="M367,683c-22,64,3,145,167.08,129
			c181.273-17.677,171.699-152.268,172.31-193.634S695,555,680,541s-19-48-9-68s28-45-29-63s-97.153-16.586-109.214-111
			S451,161,329,153s-189,54-189,98s29.247,40.338,62.124,14.669C235,240,264,262,281,277l17,15c0,0,38,44-75,129
			S72.203,570.637,266.49,572C409,573,390.908,613.448,367,683z"/>
		<path clip-path="url(#SVGID_34_)" fill="none" stroke="#49469A" stroke-miterlimit="10" d="M603,656
			c28.767,42.632,90.849,113.157,198.67-29C876,529,839.07,453.95,816,411c-7.12-13.255-32.981-38.19-62-62
			c-20.567-16.875-40-20-62-22s-44.965,3.69-60.157-25.568C616.65,272.173,595,235,541,289s-98,19-140,3
			s-74.502-52.75-167.751-5.875S111,416,102,456s8.803,86,24.901,106c16.099,20,52.978,33.434,45.423-34.96
			C170,506,191.305,488.239,219,474s64-33,81,38s-9,138,13,191s80,47,136-29S537.373,558.739,603,656z"/>
		<path clip-path="url(#SVGID_34_)" fill="none" stroke="#CC4091" stroke-miterlimit="10" d="M724,459c48.879,9.637,150,15,106-148
			S711,140,628,144s-94,22-108,42s-23.653,33.152-54.828,30.95c-31.175-2.202-64.665-13.349-67.172,44.535
			C395.938,309.087,418,342,305,389s-110.902,148.445-73,269c17.498,55.654,65.72,96.999,105,112s71-15,38-49
			s-41.103-51.313-22-89.664C372.103,592.984,393,570,508,660s144.781,70.018,154.025,20.881s-16.48-111.396-25.168-161.497
			C625,451,690.208,452.338,724,459z"/>
	</g>
	<g clip-path="url(#SVGID_2_)">
<text text-anchor="middle" transform="matrix(1 0 0 1 568.0 85.0)" font-family="'Calibri'" font-size="12">1</text>
	</g>
	<g clip-path="url(#SVGID_2_)">
<text text-anchor="middle" transform="matrix(1 0 0 1 292.5 128.0)" font-family="'Calibri'" font-size="12">2</text>
	</g>
	<g clip-path="url(#SVGID_2_)">
<text text-anchor="middle" transform="matrix(1 0 0 1 109.5 358.0)" font-family="'Calibri'" font-size="12">4</text>
	</g>
	<g clip-path="url(#SVGID_2_)">
<text text-anchor="middle" transform="matrix(1 0 0 1 197.5 659.0)" font-family="'Calibri'" font-size="12">8</text>
	</g>
	<g clip-path="url(#SVGID_2_)">
<text text-anchor="middle" transform="matrix(1 0 0 1 473.2 789.0)" font-family="'Calibri'" font-size="12">16</text>
	</g>
	<g clip-path="url(#SVGID_2_)">
<text text-anchor="middle" transform="matrix(1 0 0 1 741.0 637.0)" font-family="'Calibri'" font-size="12">32</text>
	</g>
	<g clip-path="url(#SVGID_2_)">
<text text-anchor="middle" transform="matrix(1 0 0 1 796.0 315.0)" font-family="'Calibri'" font-size="12">64</text>
	</g>
	<g clip-path="url(#SVGID_2_)">
<text text-anchor="middle" transform="matrix(1 0 0 1 647.0 165.0)" font-family="'Calibri'" font-size="12">65</text>
	</g>
	<g clip-path="url(#SVGID_2_)">
<text text-anchor="middle" transform="matrix(1 0 0 1 679.5 177.1)" font-family="'Calibri'" font-size="12">69</text>
	</g>
	<g clip-path="url(#SVGID_2_)">
<text text-anchor="middle" transform="matrix(1 0 0 1 738.5 270.1)" font-family="'Calibri'" font-size="12">68</text>
	</g>
	<g clip-path="url(#SVGID_2_)">
<text text-anchor="middle" transform="matrix(1 0 0 1 677.0 289.2)" font-family="'Calibri'" font-size="12">70</text>
	</g>
	<g clip-path="url(#SVGID_2_)">
<text text-anchor="middle" transform="matrix(1 0 0 1 634.0 280.2)" font-family="'Calibri'" font-size="12">74</text>
	</g>
	<g clip-path="url(#SVGID_2_)">
<text text-anchor="middle" transform="matrix(1 0 0 1 662.0 344.2)" font-family="'Calibri'" font-size="12">102</text>
	</g>
	<g clip-path="url(#SVGID_2_)">
<text text-anchor="middle" transform="matrix(1 0 0 1 639.0 387.0)" font-family="'Calibri'" font-size="12">103</text>
	</g>
	<g clip-path="url(#SVGID_2_)">
<text text-anchor="middle" transform="matrix(1 0 0 1 600.0 463.6)" font-family="'Calibri'" font-size="12">119</text>
	</g>
	<g clip-path="url(#SVGID_2_)">
<text text-anchor="middle" transform="matrix(1 0 0 1 663.1 447.0)" font-family="'Calibri'" font-size="12">117</text>
	</g>
	<g clip-path="url(#SVGID_2_)">
<text text-anchor="middle" transform="matrix(1 0 0 1 663.1 472.0)" font-family="'Calibri'" font-size="12">53</text>
	</g>
	<g clip-path="url(#SVGID_2_)">
<text text-anchor="middle" transform="matrix(1 0 0 1 690.0 475.0)" font-family="'Calibri'" font-size="12">37</text>
	</g>
	<g clip-path="url(#SVGID_2_)">
<text text-anchor="middle" transform="matrix(1 0 0 1 678.1 497.0)" font-family="'Calibri'" font-size="12">39</text>
	</g>
	<g clip-path="url(#SVGID_2_)">
<text text-anchor="middle" transform="matrix(1 0 0 1 648.1 501.6)" font-family="'Calibri'" font-size="12">55</text>
	</g>
	<g clip-path="url(#SVGID_2_)">
<text text-anchor="middle" transform="matrix(1 0 0 1 655.1 532.6)" font-family="'Calibri'" font-size="12">51</text>
	</g>
	<g clip-path="url(#SVGID_2_)">
<text text-anchor="middle" transform="matrix(1 0 0 1 629.0 332.2)" font-family="'Calibri'" font-size="12">110</text>
	</g>
	<g clip-path="url(#SVGID_2_)">
<text text-anchor="middle" transform="matrix(1 0 0 1 645.1 308.0)" font-family="'Calibri'" font-size="12">78</text>
	</g>
	<g clip-path="url(#SVGID_2_)">
<text text-anchor="middle" transform="matrix(1 0 0 1 658.0 258.1)" font-family="'Calibri'" font-size="12">66</text>
	</g>
	<g clip-path="url(#SVGID_2_)">
<text text-anchor="middle" transform="matrix(1 0 0 1 645.0 216.1)" font-family="'Calibri'" font-size="12">67</text>
	</g>
	<g clip-path="url(#SVGID_2_)">
<text text-anchor="middle" transform="matrix(1 0 0 1 588.1 238.5)" font-family="'Calibri'" font-size="12">75</text>
	</g>
	<g clip-path="url(#SVGID_2_)">
<text text-anchor="middle" transform="matrix(1 0 0 1 585.1 284.7)" font-family="'Calibri'" font-size="12">107</text>
	</g>
	<g clip-path="url(#SVGID_2_)">
<text text-anchor="middle" transform="matrix(1 0 0 1 581.0 337.4)" font-family="'Calibri'" font-size="12">111</text>
	</g>
	<g clip-path="url(#SVGID_2_)">
<text text-anchor="middle" transform="matrix(1 0 0 1 618.8 298.2)" font-family="'Calibri'" font-size="12">106</text>
	</g>
	<g clip-path="url(#SVGID_2_)">
<text text-anchor="middle" transform="matrix(1 0 0 1 560.1 189.5)" font-family="'Calibri'" font-size="12">73</text>
	</g>
	<g clip-path="url(#SVGID_2_)">
<text text-anchor="middle" transform="matrix(1 0 0 1 512.1 123.5)" font-family="'Calibri'" font-size="12">9</text>
	</g>
	<g clip-path="url(#SVGID_2_)">
<text text-anchor="middle" transform="matrix(1 0 0 1 448.0 136.0)" font-family="'Calibri'" font-size="12">13</text>
	</g>
	<g clip-path="url(#SVGID_2_)">
<text text-anchor="middle" transform="matrix(1 0 0 1 438.0 165.0)" font-family="'Calibri'" font-size="12">5</text>
	</g>
	<g clip-path="url(#SVGID_2_)">
<text text-anchor="middle" transform="matrix(1 0 0 1 399.0 152.3)" font-family="'Calibri'" font-size="12">7</text>
	</g>
	<g clip-path="url(#SVGID_2_)">
<text text-anchor="middle" transform="matrix(1 0 0 1 399.0 116.0)" font-family="'Calibri'" font-size="12">15</text>
	</g>
	<g clip-path="url(#SVGID_2_)">
<text text-anchor="middle" transform="matrix(1 0 0 1 387.0 99.0)" font-family="'Calibri'" font-size="12">11</text>
	</g>
	<g clip-path="url(#SVGID_2_)">
<text text-anchor="middle" transform="matrix(1 0 0 1 356.0 131.5)" font-family="'Calibri'" font-size="12">3</text>
	</g>
	<g clip-path="url(#SVGID_2_)">
<text text-anchor="middle" transform="matrix(1 0 0 1 329.0 189.5)" font-family="'Calibri'" font-size="12">19</text>
	</g>
	<g clip-path="url(#SVGID_2_)">
<text text-anchor="middle" transform="matrix(1 0 0 1 252.0 189.5)" font-family="'Calibri'" font-size="12">18</text>
	</g>
	<g clip-path="url(#SVGID_2_)">
<text text-anchor="middle" transform="matrix(1 0 0 1 266.5 253.0)" font-family="'Calibri'" font-size="12">26</text>
	</g>
	<g clip-path="url(#SVGID_2_)">
<text text-anchor="middle" transform="matrix(1 0 0 1 236.0 274.7)" font-family="'Calibri'" font-size="12">10</text>
	</g>
	<g clip-path="url(#SVGID_2_)">
<text text-anchor="middle" transform="matrix(1 0 0 1 197.5 291.4)" font-family="'Calibri'" font-size="12">14</text>
	</g>
	<g clip-path="url(#SVGID_2_)">
<text text-anchor="middle" transform="matrix(1 0 0 1 179.5 272.9)" font-family="'Calibri'" font-size="12">30</text>
	</g>
	<g clip-path="url(#SVGID_2_)">
<text text-anchor="middle" transform="matrix(1 0 0 1 325.5 257.0)" font-family="'Calibri'" font-size="12">27</text>
	</g>
	<g clip-path="url(#SVGID_2_)">
<text text-anchor="middle" transform="matrix(1 0 0 1 368.5 266.5)" font-family="'Calibri'" font-size="12">31</text>
	</g>
	<g clip-path="url(#SVGID_2_)">
<text text-anchor="middle" transform="matrix(1 0 0 1 341.5 334.6)" font-family="'Calibri'" font-size="12">63</text>
	</g>
	<g clip-path="url(#SVGID_2_)">
<text text-anchor="middle" transform="matrix(1 0 0 1 458.6 431.5)" font-family="'Calibri'" font-size="12">127</text>
	</g>
	<g clip-path="url(#SVGID_2_)">
<text text-anchor="middle" transform="matrix(1 0 0 1 317.5 285.6)" font-family="'Calibri'" font-size="12">59</text>
	</g>
	<g clip-path="url(#SVGID_2_)">
<text text-anchor="middle" transform="matrix(1 0 0 1 288.5 274.7)" font-family="'Calibri'" font-size="12">58</text>
	</g>
	<g clip-path="url(#SVGID_2_)">
<text text-anchor="middle" transform="matrix(1 0 0 1 263.0 291.4)" font-family="'Calibri'" font-size="12">42</text>
	</g>
	<g clip-path="url(#SVGID_2_)">
<text text-anchor="middle" transform="matrix(1 0 0 1 288.5 305.3)" font-family="'Calibri'" font-size="12">43</text>
	</g>
	<g clip-path="url(#SVGID_2_)">
<text text-anchor="middle" transform="matrix(1 0 0 1 283.0 332.3)" font-family="'Calibri'" font-size="12">47</text>
	</g>
	<g clip-path="url(#SVGID_2_)">
<text text-anchor="middle" transform="matrix(1 0 0 1 233.0 337.4)" font-family="'Calibri'" font-size="12">46</text>
	</g>
	<g clip-path="url(#SVGID_2_)">
<text text-anchor="middle" transform="matrix(1 0 0 1 188.0 367.5)" font-family="'Calibri'" font-size="12">38</text>
	</g>
	<g clip-path="url(#SVGID_2_)">
<text text-anchor="middle" transform="matrix(1 0 0 1 241.0 421.0)" font-family="'Calibri'" font-size="12">54</text>
	</g>
	<g clip-path="url(#SVGID_2_)">
<text text-anchor="middle" transform="matrix(1 0 0 1 192.0 468.6)" font-family="'Calibri'" font-size="12">52</text>
	</g>
	<g clip-path="url(#SVGID_2_)">
<text text-anchor="middle" transform="matrix(1 0 0 1 194.0 508.6)" font-family="'Calibri'" font-size="12">20</text>
	</g>
	<g clip-path="url(#SVGID_2_)">
<text text-anchor="middle" transform="matrix(1 0 0 1 159.0 550.6)" font-family="'Calibri'" font-size="12">60</text>
	</g>
	<g clip-path="url(#SVGID_2_)">
<text text-anchor="middle" transform="matrix(1 0 0 1 148.0 571.0)" font-family="'Calibri'" font-size="12">44</text>
	</g>
	<g clip-path="url(#SVGID_2_)">
<text text-anchor="middle" transform="matrix(1 0 0 1 192.0 550.6)" font-family="'Calibri'" font-size="12">28</text>
	</g>
	<g clip-path="url(#SVGID_2_)">
<text text-anchor="middle" transform="matrix(1 0 0 1 189.0 595.6)" font-family="'Calibri'" font-size="12">12</text>
	</g>
	<g clip-path="url(#SVGID_2_)">
<text text-anchor="middle" transform="matrix(1 0 0 1 266.5 666.0)" font-family="'Calibri'" font-size="12">72</text>
	</g>
	<g clip-path="url(#SVGID_2_)">
<text text-anchor="middle" transform="matrix(1 0 0 1 375.5 753.0)" font-family="'Calibri'" font-size="12">88</text>
	</g>
	<g clip-path="url(#SVGID_2_)">
<text text-anchor="middle" transform="matrix(1 0 0 1 368.5 729.0)" font-family="'Calibri'" font-size="12">120</text>
	</g>
	<g clip-path="url(#SVGID_2_)">
<text text-anchor="middle" transform="matrix(1 0 0 1 356.1 677.0)" font-family="'Calibri'" font-size="12">40</text>
	</g>
	<g clip-path="url(#SVGID_2_)">
<text text-anchor="middle" transform="matrix(1 0 0 1 368.5 642.0)" font-family="'Calibri'" font-size="12">41</text>
	</g>
	<g clip-path="url(#SVGID_2_)">
<text text-anchor="middle" transform="matrix(1 0 0 1 376.5 618.0)" font-family="'Calibri'" font-size="12">45</text>
	</g>
	<g clip-path="url(#SVGID_2_)">
<text text-anchor="middle" transform="matrix(1 0 0 1 408.7 619.0)" font-family="'Calibri'" font-size="12">61</text>
	</g>
	<g clip-path="url(#SVGID_2_)">
<text text-anchor="middle" transform="matrix(1 0 0 1 418.0 666.0)" font-family="'Calibri'" font-size="12">57</text>
	</g>
	<g clip-path="url(#SVGID_2_)">
<text text-anchor="middle" transform="matrix(1 0 0 1 382.0 704.0)" font-family="'Calibri'" font-size="12">56</text>
	</g>
	<g clip-path="url(#SVGID_2_)">
<text text-anchor="middle" transform="matrix(1 0 0 1 472.1 695.0)" font-family="'Calibri'" font-size="12">25</text>
	</g>
	<g clip-path="url(#SVGID_2_)">
<text text-anchor="middle" transform="matrix(1 0 0 1 499.1 644.0)" font-family="'Calibri'" font-size="12">89</text>
	</g>
	<g clip-path="url(#SVGID_2_)">
<text text-anchor="middle" transform="matrix(1 0 0 1 520.1 623.0)" font-family="'Calibri'" font-size="12">91</text>
	</g>
	<g clip-path="url(#SVGID_2_)">
<text text-anchor="middle" transform="matrix(1 0 0 1 552.1 617.0)" font-family="'Calibri'" font-size="12">90</text>
	</g>
	<g clip-path="url(#SVGID_2_)">
<text text-anchor="middle" transform="matrix(1 0 0 1 511.1 569.0)" font-family="'Calibri'" font-size="12">123</text>
	</g>
	<g clip-path="url(#SVGID_2_)">
<text text-anchor="middle" transform="matrix(1 0 0 1 460.1 611.0)" font-family="'Calibri'" font-size="12">121</text>
	</g>
	<g clip-path="url(#SVGID_2_)">
<text text-anchor="middle" transform="matrix(1 0 0 1 526.1 726.0)" font-family="'Calibri'" font-size="12">17</text>
	</g>
	<g clip-path="url(#SVGID_2_)">
<text text-anchor="middle" transform="matrix(1 0 0 1 552.1 672.0)" font-family="'Calibri'" font-size="12">81</text>
	</g>
	<g clip-path="url(#SVGID_2_)">
<text text-anchor="middle" transform="matrix(1 0 0 1 540.2 639.0)" font-family="'Calibri'" font-size="12">83</text>
	</g>
	<g clip-path="url(#SVGID_2_)">
<text text-anchor="middle" transform="matrix(1 0 0 1 588.1 663.0)" font-family="'Calibri'" font-size="12">80</text>
	</g>
	<g clip-path="url(#SVGID_2_)">
<text text-anchor="middle" transform="matrix(1 0 0 1 569.1 638.3)" font-family="'Calibri'" font-size="12">82</text>
	</g>
	<g clip-path="url(#SVGID_2_)">
<text text-anchor="middle" transform="matrix(1 0 0 1 615.8 616.3)" font-family="'Calibri'" font-size="12">114</text>
	</g>
	<g clip-path="url(#SVGID_2_)">
<text text-anchor="middle" transform="matrix(1 0 0 1 645.1 663.0)" font-family="'Calibri'" font-size="12">112</text>
	</g>
	<g clip-path="url(#SVGID_2_)">
<text text-anchor="middle" transform="matrix(1 0 0 1 645.1 694.0)" font-family="'Calibri'" font-size="12">113</text>
	</g>
	<g clip-path="url(#SVGID_2_)">
<text text-anchor="middle" transform="matrix(1 0 0 1 670.2 701.0)" font-family="'Calibri'" font-size="12">49</text>
	</g>
	<g clip-path="url(#SVGID_2_)">
<text text-anchor="middle" transform="matrix(1 0 0 1 684.0 666.0)" font-family="'Calibri'" font-size="12">48</text>
	</g>
	<g clip-path="url(#SVGID_2_)">
<text text-anchor="middle" transform="matrix(1 0 0 1 673.0 587.0)" font-family="'Calibri'" font-size="12">50</text>
	</g>
	<g clip-path="url(#SVGID_2_)">
<text text-anchor="middle" transform="matrix(1 0 0 1 607.0 542.0)" font-family="'Calibri'" font-size="12">115</text>
	</g>
	<g clip-path="url(#SVGID_2_)">
<text text-anchor="middle" transform="matrix(1 0 0 1 575.0 591.0)" font-family="'Calibri'" font-size="12">122</text>
	</g>
	<g clip-path="url(#SVGID_2_)">
<text text-anchor="middle" transform="matrix(1 0 0 1 416.0 748.0)" font-family="'Calibri'" font-size="12">24</text>
	</g>
	<g clip-path="url(#SVGID_2_)">
<text text-anchor="middle" transform="matrix(1 0 0 1 254.0 445.0)" font-family="'Calibri'" font-size="12">118</text>
	</g>
	<g clip-path="url(#SVGID_2_)">
<text text-anchor="middle" transform="matrix(1 0 0 1 259.5 478.0)" font-family="'Calibri'" font-size="12">86</text>
	</g>
	<g clip-path="url(#SVGID_2_)">
<text text-anchor="middle" transform="matrix(1 0 0 1 275.5 500.0)" font-family="'Calibri'" font-size="12">94</text>
	</g>
	<g clip-path="url(#SVGID_2_)">
<text text-anchor="middle" transform="matrix(1 0 0 1 317.5 542.0)" font-family="'Calibri'" font-size="12">124</text>
	</g>
	<g clip-path="url(#SVGID_2_)">
<text text-anchor="middle" transform="matrix(1 0 0 1 245.5 542.1)" font-family="'Calibri'" font-size="12">92</text>
	</g>
	<g clip-path="url(#SVGID_2_)">
<text text-anchor="middle" transform="matrix(1 0 0 1 233.0 489.0)" font-family="'Calibri'" font-size="12">84</text>
	</g>
	<g clip-path="url(#SVGID_2_)">
<text text-anchor="middle" transform="matrix(1 0 0 1 233.0 458.6)" font-family="'Calibri'" font-size="12">116</text>
	</g>
	<g clip-path="url(#SVGID_2_)">
<text text-anchor="middle" transform="matrix(1 0 0 1 250.5 600.1)" font-family="'Calibri'" font-size="12">76</text>
	</g>
	<g clip-path="url(#SVGID_2_)">
<text text-anchor="middle" transform="matrix(1 0 0 1 315.0 592.1)" font-family="'Calibri'" font-size="12">108</text>
	</g>
	<g clip-path="url(#SVGID_2_)">
<text text-anchor="middle" transform="matrix(1 0 0 1 348.0 597.7)" font-family="'Calibri'" font-size="12">109</text>
	</g>
	<g clip-path="url(#SVGID_2_)">
<text text-anchor="middle" transform="matrix(1 0 0 1 380.0 554.7)" font-family="'Calibri'" font-size="12">125</text>
	</g>
	<g clip-path="url(#SVGID_2_)">
<text text-anchor="middle" transform="matrix(1 0 0 1 348.0 619.9)" font-family="'Calibri'" font-size="12">105</text>
	</g>
	<g clip-path="url(#SVGID_2_)">
<text text-anchor="middle" transform="matrix(1 0 0 1 322.0 637.0)" font-family="'Calibri'" font-size="12">104</text>
	</g>
	<g clip-path="url(#SVGID_2_)">
<text text-anchor="middle" transform="matrix(1 0 0 1 277.0 390.0)" font-family="'Calibri'" font-size="12">62</text>
	</g>
	<g clip-path="url(#SVGID_2_)">
<text text-anchor="middle" transform="matrix(1 0 0 1 311.5 444.0)" font-family="'Calibri'" font-size="12">126</text>
	</g>
	<g clip-path="url(#SVGID_2_)">
<text text-anchor="middle" transform="matrix(1 0 0 1 148.0 422.5)" font-family="'Calibri'" font-size="12">36</text>
	</g>
	<g clip-path="url(#SVGID_2_)">
<text text-anchor="middle" transform="matrix(1 0 0 1 153.0 314.5)" font-family="'Calibri'" font-size="12">6</text>
	</g>
	<g clip-path="url(#SVGID_2_)">
<text text-anchor="middle" transform="matrix(1 0 0 1 444.0 203.0)" font-family="'Calibri'" font-size="12">21</text>
	</g>
	<g clip-path="url(#SVGID_2_)">
<text text-anchor="middle" transform="matrix(1 0 0 1 382.0 200.0)" font-family="'Calibri'" font-size="12">23</text>
	</g>
	<g clip-path="url(#SVGID_2_)">
<text text-anchor="middle" transform="matrix(1 0 0 1 474.5 212.0)" font-family="'Calibri'" font-size="12">29</text>
	</g>
	<g clip-path="url(#SVGID_2_)">
<text text-anchor="middle" transform="matrix(1 0 0 1 512.1 221.0)" font-family="'Calibri'" font-size="12">77</text>
	</g>
	<g clip-path="url(#SVGID_2_)">
<text text-anchor="middle" transform="matrix(1 0 0 1 484.1 231.0)" font-family="'Calibri'" font-size="12">93</text>
	</g>
	<g clip-path="url(#SVGID_2_)">
<text text-anchor="middle" transform="matrix(1 0 0 1 452.1 230.0)" font-family="'Calibri'" font-size="12">85</text>
	</g>
	<g clip-path="url(#SVGID_2_)">
<text text-anchor="middle" transform="matrix(1 0 0 1 422.1 243.0)" font-family="'Calibri'" font-size="12">87</text>
	</g>
	<g clip-path="url(#SVGID_2_)">
<text text-anchor="middle" transform="matrix(1 0 0 1 472.1 280.0)" font-family="'Calibri'" font-size="12">95</text>
	</g>
	<g clip-path="url(#SVGID_2_)">
<text text-anchor="middle" transform="matrix(1 0 0 1 536.1 264.1)" font-family="'Calibri'" font-size="12">79</text>
	</g>
	<g clip-path="url(#SVGID_2_)">
<text text-anchor="middle" transform="matrix(1 0 0 1 710.5 362.0)" font-family="'Calibri'" font-size="12">100</text>
	</g>
	<g clip-path="url(#SVGID_2_)">
<text text-anchor="middle" transform="matrix(1 0 0 1 702.9 410.0)" font-family="'Calibri'" font-size="12">101</text>
	</g>
	<g clip-path="url(#SVGID_2_)">
<text text-anchor="middle" transform="matrix(1 0 0 1 751.9 443.0)" font-family="'Calibri'" font-size="12">97</text>
	</g>
	<g clip-path="url(#SVGID_2_)">
<text text-anchor="middle" transform="matrix(1 0 0 1 724.9 477.0)" font-family="'Calibri'" font-size="12">33</text>
	</g>
	<g clip-path="url(#SVGID_2_)">
<text text-anchor="middle" transform="matrix(1 0 0 1 776.5 398.8)" font-family="'Calibri'" font-size="12">96</text>
	</g>
	<g clip-path="url(#SVGID_2_)">
<text text-anchor="middle" transform="matrix(1 0 0 1 801.7 443.0)" font-family="'Calibri'" font-size="12">98</text>
	</g>
	<g clip-path="url(#SVGID_2_)">
<text text-anchor="middle" transform="matrix(1 0 0 1 782.0 454.0)" font-family="'Calibri'" font-size="12">99</text>
	</g>
	<g clip-path="url(#SVGID_2_)">
<text text-anchor="middle" transform="matrix(1 0 0 1 751.9 499.6)" font-family="'Calibri'" font-size="12">35</text>
	</g>
	<g clip-path="url(#SVGID_2_)">
<text text-anchor="middle" transform="matrix(1 0 0 1 759.0 553.0)" font-family="'Calibri'" font-size="12">34</text>
	</g>
	<g clip-path="url(#SVGID_2_)">
<text text-anchor="middle" transform="matrix(1 0 0 1 674.0 198.1)" font-family="'Calibri'" font-size="12">71</text>
	</g>
	<g clip-path="url(#SVGID_2_)">
<text text-anchor="middle" transform="matrix(1 0 0 1 152.5 271.9)" font-family="'Calibri'" font-size="12">22</text>
	</g>
	<g>
		<text text-anchor="middle" transform="matrix(1 0 0 1 648 70)" font-family="'Calibri'"  font-size="16" style="font-weight:bold; font-style:italic">A</text>
		<text text-anchor="middle" transform="matrix(1 0 0 1 216 90)" font-family="'Calibri'"  font-size="16" style="font-weight:bold; font-style:italic">B</text>
		<text text-anchor="middle" transform="matrix(1 0 0 1 45 445)" font-family="'Calibri'"  font-size="16" style="font-weight:bold; font-style:italic">C</text>
		<text text-anchor="middle" transform="matrix(1 0 0 1 184 740)" font-family="'Calibri'" font-size="16" style="font-weight:bold; font-style:italic">D</text>
		<text text-anchor="middle" transform="matrix(1 0 0 1 650 810)" font-family="'Calibri'" font-size="16" style="font-weight:bold; font-style:italic">E</text>
		<text text-anchor="middle" transform="matrix(1 0 0 1 828 658)" font-family="'Calibri'" font-size="16" style="font-weight:bold; font-style:italic">F</text>
		<text text-anchor="middle" transform="matrix(1 0 0 1 846 286)" font-family="'Calibri'" font-size="16" style="font-weight:bold; font-style:italic">G</text>
		<text text-anchor="middle" transform="matrix(1 0 0 1 470 846)" font-family="'Calibri'" font-size="16" style="font-weight:bold">Title</text>
	</g>
</g>
</svg>
