<?xml version="1.0" encoding="utf-8"?>
<!-- Generator: Adobe Illustrator 15.0.0, SVG Export Plug-In . SVG Version: 6.00 Build 0)  -->
<!DOCTYPE svg PUBLIC "-//W3C//DTD SVG 1.1//EN" "http://www.w3.org/Graphics/SVG/1.1/DTD/svg11.dtd">
<svg version="1.1" id="图层_1" xmlns="http://www.w3.org/2000/svg" xmlns:xlink="http://www.w3.org/1999/xlink" x="0px" y="0px"
	 width="781.5px" height="550.197px" viewBox="0 0 781.5 550.197" enable-background="new 0 0 781.5 550.197" xml:space="preserve">
<g>
	
		<g id="svg2" xmlns:dc="http://purl.org/dc/elements/1.1/" xmlns:cc="http://web.resource.org/cc/" xmlns:rdf="http://www.w3.org/1999/02/22-rdf-syntax-ns#" xmlns:svg="http://www.w3.org/2000/svg" xmlns:sodipodi="http://sodipodi.sourceforge.net/DTD/sodipodi-0.dtd" xmlns:inkscape="http://www.inkscape.org/namespaces/inkscape" sodipodi:version="0.32" inkscape:version="0.44.1" sodipodi:docbase="C:\Temp" sodipodi:docname="Edwards_Venn.svg">
		
			<sodipodi:namedview  id="base" pagecolor="#ffffff" bordercolor="#666666" borderopacity="1.0" gridtolerance="10000" guidetolerance="10" objecttolerance="10" inkscape:zoom="1.979899" inkscape:cx="372.84036" inkscape:cy="193.91873" inkscape:pageopacity="0.0" inkscape:pageshadow="2" inkscape:document-units="px" inkscape:current-layer="layer1" inkscape:window-width="1920" inkscape:window-height="1031" inkscape:window-x="-4" inkscape:window-y="-4">
			</sodipodi:namedview>
		<g id="layer1" transform="translate(-266.937,-366.921)" inkscape:groupmode="layer" inkscape:label="Layer 1">
			<rect id="rect4170" x="267.937" y="366.921" fill="#FFFFFF" width="775.699" height="520.725"/>
			<path id="path9498" sodipodi:nodetypes="cccccccccccccccscccc" fill="#0000FF" fill-opacity="0.2" stroke="#0000FF" d="
				M628.674,839.697c-28.575-12.299-38.777-47.151-31.047-75.468c4.171-21.618,6.234-47.228-8.132-65.184
				c-17.37-18.325-40.653-25.415-62.751-13.899c-28.859,8.673-65.637,1.066-79.816-27.975
				c-16.411-31.756-2.438-78.641,34.173-88.343c23.275-7.296,46.79,2.837,69.684,5.61c21.259-6.341,47.615-19.451,48.125-45.052
				c1.655-27.992-4.89-56.456,0.474-84.144c11.811-26.039,42.14-39.921,69.79-33.523c26.038,3.62,49.048,28.165,45.675,55.305
				c1.345,20.159-5.149,39.91-3.846,59.898c5.083,33.878,46.18,57.603,77.575,41.761c33.973-13.385,80.447,10.231,82.233,48.569
				c4.73,30.241-12.587,65.217-44.715,70.62c-28.483,7.256-59.673-13.742-88.446-1.579c-20.82,8.801-25.352,28.195-27.104,48.268
				c1.204,25.811,11.953,53.872,0.053,78.537c-11.267,21.755-35.621,32.926-59.542,30.511
				C643.501,843.279,635.726,842.644,628.674,839.697z"/>
			<path id="path8609" fill="#009600" fill-opacity="0.2" stroke="#009600" d="M422.521,772.613
				c-54.23-11.721-99.419-57.432-112.09-111.119c-0.867-33.432-6.57-70.016,11.519-100.239
				c31.626-65.938,115.942-99.865,184.057-72.333c42.072,16.104,68.326,58.742,113.59,68.624
				c51.251,16.376,107.248-5.933,143.716-42.923c52.726-46.675,138.901-46.531,191.129,0.837
				c27.64,25.26,51.676,60.669,47.87,99.836c1.178,33.703-0.663,70.086-23.631,97.06c-38.381,58.017-120.832,79.511-182.882,48.128
				c-39.299-18.045-65.403-60.191-110.894-65.321c-32.082-9.347-66.876-1.165-96.107,13.293
				c-24.448,14.521-41.901,38.132-68.32,49.797C491.484,775.385,455.109,776.965,422.521,772.613z"/>
			
				<path id="path2376" sodipodi:nodetypes="csssssssssssssssssssssssssssssssc" fill="#FF00FF" fill-opacity="0.2" stroke="#FF00FF" d="
				M671.01,794.368c7.226-5.683,9.346-11.139,10.708-27.549c1.391-16.807,3.427-21.842,11.373-28.183
				c12.51-9.974,31.559-10.313,43.496,5.251c7.519,9.803,22.082,16.116,35.345,9.556c7.184-3.553,12.251-10.499,12.475-17.813
				c0.275-8.972-1.307-15.148-6.173-20.017c-14.649-14.649-18.838-24.367-16.308-37.844c3.06-16.305,13.24-22.035,33.086-22.035
				c11.692,0,17.697-2.173,24.338-8.813c19.051-19.049,4.447-46.571-25.302-46.571c-12.717,0-18.502-2.018-25.301-8.816
				c-14.249-14.249-10.924-32.171,9.821-52.916c8.538-8.541,8.249-21.346-0.723-31.689c-10.544-12.157-26.165-10.987-40.641,3.042
				c-8.748,8.479-15.013,11.371-24.632,11.371c-20.17,0-28.854-9.459-30.858-33.615c-1.373-16.566-3.455-21.827-10.962-27.734
				c-18.59-14.621-40.104,0.288-40.104,27.793c0,30.896-30.559,44.894-52.785,24.179c-13.327-12.419-24.979-16.68-33.359-12.194
				c-19.842,10.62-23.475,27.197-9.106,41.565c18.019,18.02,21.006,34.034,9.157,49.099c-5.648,7.181-11.153,9.347-27.116,10.67
				c-23.795,1.974-31.875,8.608-31.875,26.179c0,17.569,8.079,24.205,31.875,26.178c15.965,1.325,21.468,3.491,27.116,10.672
				c10.22,12.992,8.959,27.205-3.692,41.614c-14.258,16.238-16.642,30.279-7.057,41.542c8.45,9.925,26.524,11.253,33.607,3.427
				c24.523-27.098,63.235-19.708,63.235,14.901c0,17.733,4.918,27.962,15.497,32.223
				C657.897,802.575,661.158,802.119,671.01,794.368z"/>
			
				<path id="path2378" sodipodi:type="arc" sodipodi:cx="108.08632" sodipodi:cy="70.753784" sodipodi:rx="36.870567" sodipodi:ry="41.921329" fill="none" d="
				M788.505,621.013c0,83.146-59.281,150.549-132.408,150.549c-73.128,0-132.41-67.402-132.41-150.549
				c0-83.146,59.282-150.548,132.41-150.548C729.224,470.464,788.505,537.867,788.505,621.013z"/>
			
				<path id="path3265" sodipodi:type="arc" sodipodi:cx="105.87662" sodipodi:cy="71.574539" sodipodi:rx="41.353119" sodipodi:ry="41.353119" fill="#FFFF00" fill-opacity="0.2" stroke="#FFFF00" stroke-width="0.5" d="
				M802.167,623.508c0,79.544-64.482,144.026-144.025,144.026c-79.544,0-144.028-64.482-144.028-144.026
				c0-79.544,64.484-144.028,144.028-144.028C737.684,479.48,802.167,543.964,802.167,623.508z"/>
			
				<path id="path6829" inkscape:original="M 372.46875 373 L 372.46875 503.375 L 473.53125 503.375 L 473.53125 373 L 372.46875 373 z " inkscape:radius="7.323606" sodipodi:type="inkscape:offset" fill="#FFA500" fill-opacity="0.2" stroke="#FFA500" stroke-width="0.5" d="
				M677.013,368.787c-13.611,0.024-24.64,11.77-24.661,26.266V863.35c0.023,14.498,11.051,26.242,24.661,26.266h340.846
				c13.61-0.023,24.64-11.769,24.66-26.266V395.053c-0.022-14.498-11.051-26.243-24.66-26.266H677.013L677.013,368.787z"/>
			
				<path id="path6835" inkscape:original="M 277.4375 439.1875 L 277.4375 500.3125 L 476.4375 500.3125 L 476.4375 439.1875 L 277.4375 439.1875 z " inkscape:radius="7.5" sodipodi:type="inkscape:offset" fill="#FF0000" fill-opacity="0.2" stroke="#FF0000" stroke-width="0.5" d="
				M300.964,629.865c-14.875,0.001-26.935,11.463-26.938,25.601V864.13c0.001,14.139,12.062,25.601,26.938,25.601h714.733
				c14.876-0.002,26.938-11.464,26.938-25.601V655.466c0-14.139-12.062-25.601-26.938-25.601H300.964L300.964,629.865z"/>
		</g>
		<g>
<text text-anchor="middle" transform="matrix(1 0 0 1 632.0 59.5)" font-family="'Calibri'" font-size="12">1</text>
<text text-anchor="middle" transform="matrix(1 0 0 1 138.1 472.6)" font-family="'Calibri'" font-size="12">2</text>
<text text-anchor="middle" transform="matrix(1 0 0 1 141.6 188.5)" font-family="'Calibri'" font-size="12">4</text>
<text text-anchor="middle" transform="matrix(1 0 0 1 359.2 72.8)" font-family="'Calibri'" font-size="12">8</text>
<text text-anchor="middle" transform="matrix(1 0 0 1 290.6 143.0)" font-family="'Calibri'" font-size="12">16</text>
<text text-anchor="middle" transform="matrix(1 0 0 1 323 147.2)" font-family="'Calibri'" font-size="12">32</text>
<text text-anchor="middle" transform="matrix(1 0 0 1 139.1 338.7)" font-family="'Calibri'" font-size="12">6</text>
<text text-anchor="middle" transform="matrix(1 0 0 1 655.0 192.7)" font-family="'Calibri'" font-size="12">5</text>
<text text-anchor="middle" transform="matrix(1 0 0 1 647.2 462.0)" font-family="'Calibri'" font-size="12">3</text>
<text text-anchor="middle" transform="matrix(1 0 0 1 424.1 299.0)" font-family="'Calibri'" font-size="12">63</text>
<text text-anchor="middle" transform="matrix(1 0 0 1 412.6 72.8)" font-family="'Calibri'" font-size="12">9</text>
<text text-anchor="middle" transform="matrix(1 0 0 1 210.2 231.6)" font-family="'Calibri'" font-size="12">12</text>
<text text-anchor="middle" transform="matrix(1 0 0 1 356.9 442.2)" font-family="'Calibri'" font-size="12">10</text>
<text text-anchor="middle" transform="matrix(1 0 0 1 416.7 442.2)" font-family="'Calibri'" font-size="12">11</text>
<text text-anchor="middle" transform="matrix(1 0 0 1 561.3 231.7)" font-family="'Calibri'" font-size="12">13</text>
<text text-anchor="middle" transform="matrix(1 0 0 1 332.0 231.7)" font-family="'Calibri'" font-size="12">60</text>
<text text-anchor="middle" transform="matrix(1 0 0 1 324.5 299.0)" font-family="'Calibri'" font-size="12">62</text>
<text text-anchor="middle" transform="matrix(1 0 0 1 423.7 234.4)" font-family="'Calibri'" font-size="12">61</text>
<text text-anchor="middle" transform="matrix(1 0 0 1 405.7 180.6)" font-family="'Calibri'" font-size="12">57</text>
<text text-anchor="middle" transform="matrix(1 0 0 1 363.6 163.5)" font-family="'Calibri'" font-size="12">56</text>
<text text-anchor="middle" transform="matrix(1 0 0 1 347.7 130.2)" font-family="'Calibri'" font-size="12">40</text>
<text text-anchor="middle" transform="matrix(1 0 0 1 379.5 100.5)" font-family="'Calibri'" font-size="12">24</text>
<text text-anchor="middle" transform="matrix(1 0 0 1 397.6 110.6)" font-family="'Calibri'" font-size="12">25</text>
<text text-anchor="middle" transform="matrix(1 0 0 1 648.2 338.7)" font-family="'Calibri'" font-size="12">7</text>
<text text-anchor="middle" transform="matrix(1 0 0 1 263.6 218.9)" font-family="'Calibri'" font-size="12">44</text>
<text text-anchor="middle" transform="matrix(1 0 0 1 271.8 199.1)" font-family="'Calibri'" font-size="12">36</text>
<text text-anchor="middle" transform="matrix(1 0 0 1 290.6 182.1)" font-family="'Calibri'" font-size="12">52</text>
<text text-anchor="middle" transform="matrix(1 0 0 1 317.2 165.1)" font-family="'Calibri'" font-size="12">48</text>
<text text-anchor="middle" transform="matrix(1 0 0 1 510.6 223.2)" font-family="'Calibri'" font-size="12">45</text>
<text text-anchor="middle" transform="matrix(1 0 0 1 475.1 182.1)" font-family="'Calibri'" font-size="12">53</text>
<text text-anchor="middle" transform="matrix(1 0 0 1 457.8 166.5)" font-family="'Calibri'" font-size="12">49</text>
<text text-anchor="middle" transform="matrix(1 0 0 1 454.7 148.7)" font-family="'Calibri'" font-size="12">33</text>
<text text-anchor="middle" transform="matrix(1 0 0 1 492.9 141.6)" font-family="'Calibri'" font-size="12">17</text>
<text text-anchor="middle" transform="matrix(1 0 0 1 271.1 165)" font-family="'Calibri'" font-size="12">20</text>
<text text-anchor="middle" transform="matrix(1 0 0 1 506.7 158.6)" font-family="'Calibri'" font-size="12">21</text>
<text text-anchor="middle" transform="matrix(1 0 0 1 235 255.2)" font-family="'Calibri'" font-size="12">28</text>
<text text-anchor="middle" transform="matrix(1 0 0 1 210.5 301.0)" font-family="'Calibri'" font-size="12">14</text>
<text text-anchor="middle" transform="matrix(1 0 0 1 235 277.1)" font-family="'Calibri'" font-size="12">30</text>
<text text-anchor="middle" transform="matrix(1 0 0 1 262.5 305.5)" font-family="'Calibri'" font-size="12">46</text>
<text text-anchor="middle" transform="matrix(1 0 0 1 272.1 325.9)" font-family="'Calibri'" font-size="12">38</text>
<text text-anchor="middle" transform="matrix(1 0 0 1 290.9 341.5)" font-family="'Calibri'" font-size="12">54</text>
<text text-anchor="middle" transform="matrix(1 0 0 1 272.1 367.0)" font-family="'Calibri'" font-size="12">22</text>
<text text-anchor="middle" transform="matrix(1 0 0 1 291.7 385)" font-family="'Calibri'" font-size="12">18</text>
<text text-anchor="middle" transform="matrix(1 0 0 1 314.7 361.4)" font-family="'Calibri'" font-size="12">50</text>
<text text-anchor="middle" transform="matrix(1 0 0 1 358.2 354.9)" font-family="'Calibri'" font-size="12">58</text>
<text text-anchor="middle" transform="matrix(1 0 0 1 345.1 390)" font-family="'Calibri'" font-size="12">42</text>
<text text-anchor="middle" transform="matrix(1 0 0 1 372.8 411.6)" font-family="'Calibri'" font-size="12">26</text>
<text text-anchor="middle" transform="matrix(1 0 0 1 392.9 422.4)" font-family="'Calibri'" font-size="12">27</text>
<text text-anchor="middle" transform="matrix(1 0 0 1 397.5 368.5)" font-family="'Calibri'" font-size="12">59</text>
<text text-anchor="middle" transform="matrix(1 0 0 1 428.8 131.7)" font-family="'Calibri'" font-size="12">41</text>
<text text-anchor="middle" transform="matrix(1 0 0 1 426.2 390.3)" font-family="'Calibri'" font-size="12">43</text>
<text text-anchor="middle" transform="matrix(1 0 0 1 324.3 380.5)" font-family="'Calibri'" font-size="12">34</text>
<text text-anchor="middle" transform="matrix(1 0 0 1 450.7 379.1)" font-family="'Calibri'" font-size="12">35</text>
<text text-anchor="middle" transform="matrix(1 0 0 1 455.3 361.4)" font-family="'Calibri'" font-size="12">51</text>
<text text-anchor="middle" transform="matrix(1 0 0 1 501.1 367.0)" font-family="'Calibri'" font-size="12">23</text>
<text text-anchor="middle" transform="matrix(1 0 0 1 488.1 381.9)" font-family="'Calibri'" font-size="12">19</text>
<text text-anchor="middle" transform="matrix(1 0 0 1 474.0 345.1)" font-family="'Calibri'" font-size="12">55</text>
<text text-anchor="middle" transform="matrix(1 0 0 1 510 311.7)" font-family="'Calibri'" font-size="12">47</text>
<text text-anchor="middle" transform="matrix(1 0 0 1 561 299.0)" font-family="'Calibri'" font-size="12">15</text>
<text text-anchor="middle" transform="matrix(1 0 0 1 544 277.8)" font-family="'Calibri'" font-size="12">31</text>
<text text-anchor="middle" transform="matrix(1 0 0 1 544 255.8)" font-family="'Calibri'" font-size="12">29</text>
<text text-anchor="middle" transform="matrix(1 0 0 1 510 327.2)" font-family="'Calibri'" font-size="12">39</text>
<text text-anchor="middle" transform="matrix(1 0 0 1 510 197.8)" font-family="'Calibri'" font-size="12">37</text>
		</g>
		<g>
			<text text-anchor="middle" transform="matrix(1 0 0 1 695 36.814)"   font-family="'Calibri'" font-size="16" style="font-style: italic; font-weight: bold">A</text>
			<text text-anchor="middle" transform="matrix(1 0 0 1 75  472.6387)"  font-family="'Calibri'" font-size="16" style="font-style: italic; font-weight: bold">B</text>
			<text text-anchor="middle" transform="matrix(1 0 0 1 115 166.4985)" font-family="'Calibri'" font-size="16" style="font-style: italic; font-weight: bold">C</text>
			<text text-anchor="middle" transform="matrix(1 0 0 1 320 49.5352)"  font-family="'Calibri'" font-size="16" style="font-style: italic; font-weight: bold">D</text>
			<text text-anchor="middle" transform="matrix(1 0 0 1 255 107.7959)" font-family="'Calibri'" font-size="16" style="font-style: italic; font-weight: bold">E</text>
			<text text-anchor="middle" transform="matrix(1 0 0 1 305 107.7959)"  font-family="'Calibri'" font-size="16" style="font-style: italic; font-weight: bold">F</text>
			<text text-anchor="middle" transform="matrix(1 0 0 1 375.834 545.6299)" font-family="'Calibri'" font-size="16" style="font-weight: bold;">Title</text>

			<line fill="none" stroke="#231815" stroke-width="0.5" x1="264.856" y1="110.63" x2="277.567" y2="132.851"/>
			<line fill="none" stroke="#231815" stroke-width="0.5" x1="307.368" y1="107.795" x2="318.953" y2="130.824"/>
			<line fill="none" stroke="#231815" stroke-width="0.5" x1="327.457" y1="52.36" x2="347.55" y2="58.224"/>
		</g>
	</g>
	<g id="图层_2">
	</g>
</g>
</svg>


