<?xml version="1.0" encoding="UTF-8"?>
<!DOCTYPE svg PUBLIC "-//W3C//DTD SVG 1.1//EN" "http://www.w3.org/Graphics/SVG/1.1/DTD/svg11.dtd">
<svg version="1.1" xmlns="http://www.w3.org/2000/svg" xmlns:xlink="http://www.w3.org/1999/xlink" width="600" height="620" viewBox="-362 -388 746 770">
 <defs>
  <ellipse id="ellipse" cx="36" cy="-56" rx="160" ry="320" />
  <g id="ellipses">
  	<use xlink:href="#ellipse" stroke="red" fill="red" />
  	<use xlink:href="#ellipse" stroke="blue" fill="blue" transform="rotate(72)" />
  	<use xlink:href="#ellipse" stroke="orange" fill="orange" transform="rotate(144)" />
  	<use xlink:href="#ellipse" stroke="green" fill="green" transform="rotate(216)" />
  	<use xlink:href="#ellipse" stroke="purple" fill="purple" transform="rotate(288)" />
  </g>
 </defs>
 <use xlink:href="#ellipses" fill-opacity="0.2" />
 <use xlink:href="#ellipses" fill-opacity="0" stroke="#000" stroke-width="1" />
 <g text-anchor="middle" font-family="Calibri" font-size="16">
  <text x="30"   y="-290" dy="0.7ex">1</text>
  <text x="-280" y="-100" dy="0.7ex">2</text>
  <text x="-210" y="210"  dy="0.7ex">4</text>
  <text x="160"  y="260"  dy="0.7ex">8</text>
  <text x="290"  y="-60"  dy="0.7ex">16</text>
  <text x="-80"  y="-215" dy="0.7ex">3</text>
  <text x="180"  y="-130" dy="0.7ex">17</text>
  <text x="40"   y="230"  dy="0.7ex">9</text>
  <text x="100"  y="-200" dy="0.7ex">5</text>
  <text x="190"  y="125"  dy="0.7ex">24</text>
  <text x="-190" y="120"  dy="0.7ex">20</text>
  <text x="230"  y="40"   dy="0.7ex">18</text>
  <text x="-60"  y="220"  dy="0.7ex">12</text>
  <text x="-170" y="-150" dy="0.7ex">10</text>
  <text x="-222" y="0"    dy="0.7ex">6</text>
  <text x="90"   y="150"  dy="0.7ex">25</text>
  <text x="-33"  y="208"  dy="0.7ex">13</text>

  <text x="148"  y="-153" dy="0.7ex">21</text>
  <text x="170"  y="-20"  dy="0.7ex">19</text>
  <text x="120"  y="-100" dy="0.7ex">23</text>
  <text x="20"   y="-180" dy="0.7ex">7</text>
  <text x="-60"  y="-140" dy="0.7ex">15</text>
  <text x="-150" y="-80"  dy="0.7ex">14</text>
  <text x="-160" y="20"   dy="0.7ex">30</text>
  <text x="-93"  y="-193" dy="0.7ex">11</text>
  <text x="0"    y="0"    dy="0.7ex">31</text>
  <text x="-120" y="120"  dy="0.7ex">28</text>
  <text x="140"  y="80"   dy="0.7ex">27</text>


  <text x="190"  y="100"  dy="0.7ex">26</text>
  <text x="-211" y="32"   dy="0.7ex">22</text>
  <text x="-30"  y="160"  dy="0.7ex">29</text>

  <text x="30"   y="-340" dy="0.7ex" font-size="24" font-style="italic">A</text>
  <text x="290"  y="-100" dy="0.7ex" font-size="24" font-style="italic">E</text>
  <text x="160"  y="300"  dy="0.7ex" font-size="24" font-style="italic">D</text>
  <text x="-220" y="250"  dy="0.7ex" font-size="24" font-style="italic">C</text>
  <text x="-290" y="-140" dy="0.7ex" font-size="24" font-style="italic">B</text>
  <text x="0"    y="360"  dy="0.7ex" font-size="24">Title</text>
 </g>
</svg>
